<svg xmlns="http://www.w3.org/2000/svg" xmlns:svg="http://www.w3.org/2000/svg" id="svg14" width="500" height="500" version="1.1" viewBox="0 0 500 500"><metadata id="metadata20"/><title id="title2">rails_2_a</title><desc id="desc4">Created with Sketch.</desc><rect style="fill:#fff;fill-rule:evenodd;stroke:none;stroke-width:.63450772" id="rect6" width="305" height="330" x="100" y="71.5"/><circle style="fill:#215454;fill-rule:nonzero;stroke:none;stroke-width:1;fill-opacity:1" id="Oval" cx="250" cy="250" r="250"/><g style="fill:#fff;fill-rule:nonzero;stroke:none;stroke-width:1" id="Group" transform="translate(113,153)"><path id="Combined-Shape" d="M 110.67512,119 H 0 V 75 H 73.213547 C 53.277372,56.544397 34.564154,46.211064 17.073891,44 H 0 V 0 H 275 V 44 H 98.904124 c 0.09615,0.10603 0.191611,0.212763 0.286392,0.320199 C 113.15275,60.1466 134.79085,70.3732 164.10481,75 H 275 v 44 h -82.42718 c 0.48828,0.48312 0.96117,0.98215 1.41861,1.49709 13.3785,15.06018 33.82763,25.22782 61.34738,30.50291 H 275 v 44 H 0 v -44 h 168.04433 c -20.10274,-19.76335 -39.22581,-30.43002 -57.36921,-32 z"/></g></svg>