<svg xmlns="http://www.w3.org/2000/svg" xmlns:svg="http://www.w3.org/2000/svg" id="svg42" width="112" height="112" version="1.1" viewBox="0 0 112 112" style="fill:none"><metadata id="metadata46"/><g id="g885"><path id="path2" d="M 56,112 C 86.9279,112 112,86.9279 112,56 112,25.0721 86.9279,0 56,0 25.0721,0 0,25.0721 0,56 c 0,30.9279 25.0721,56 56,56 z" style="fill:#f6f3ed"/><path id="path4" d="m 80.8114,27.5626 c 1.4621,0 2.6473,1.1852 2.6473,2.6472 0,1.4621 -1.1852,2.6473 -2.6473,2.6473 -0.1952,0 -0.3454,-2e-4 -0.7145,-9e-4 -3.8939,-0.007 -5.8548,0.0759 -8.3261,0.4683 -3.3004,0.524 -6.3014,1.548 -9.1447,3.2476 -1.7498,1.046 -3.4251,2.3427 -5.0303,3.9209 -5.6267,5.5324 -10.0713,12.7575 -13.3249,21.7049 l -0.9047,2.4879 -4.9758,-1.8093 0.9047,-2.4879 c 3.5121,-9.6583 8.372,-17.5584 14.5887,-23.6709 1.9042,-1.8723 3.9135,-3.4274 6.0257,-4.69 3.4551,-2.0655 7.0944,-3.3072 11.0311,-3.9323 2.8304,-0.4494 5.0031,-0.5413 9.1659,-0.5337 0.3658,7e-4 0.5141,9e-4 0.7049,9e-4 z m 2.7126,14.5587 c 0,1.462 -1.1852,2.6473 -2.6473,2.6473 h -3.8349 c -6.7899,0 -12.28,2.821 -16.2829,7.6751 -3.2201,3.9048 -5.1612,8.922 -5.1612,12.3082 v 2.6473 h -5.2945 v -2.6473 c 0,-4.6639 2.3957,-10.8562 6.3709,-15.6767 4.9699,-6.0267 11.9263,-9.6012 20.3677,-9.6012 h 3.8349 c 1.4621,0 2.6473,1.1852 2.6473,2.6473 z" style="fill:#0e0d10"/><g id="g8" style="filter:url(#filter0_d)"><path id="path6" d="m 52.9504,27.5613 h 0.6619 c 1.462,0 2.6472,1.1852 2.6472,2.6473 v 56.6957 c 0,1.4621 -1.1852,2.6473 -2.6472,2.6473 h -0.6619 c -1.462,0 -2.6472,-1.1852 -2.6472,-2.6473 V 30.2086 c 0,-1.4621 1.1852,-2.6473 2.6472,-2.6473 z m -11.9127,0.4412 h 0.6618 c 1.4621,0 2.6473,1.1852 2.6473,2.6473 v 56.6957 c 0,1.4621 -1.1852,2.6473 -2.6473,2.6473 h -0.6618 c -1.462,0 -2.6473,-1.1852 -2.6473,-2.6473 V 30.6498 c 0,-1.4621 1.1853,-2.6473 2.6473,-2.6473 z" style="fill:#0e0d10"/></g></g><defs id="defs40"><filter id="filter0_d" width="37.869" height="82.432" x="30.39" y="17.561" filterUnits="userSpaceOnUse" style="color-interpolation-filters:sRGB"><feFlood id="feFlood22" flood-opacity="0" result="BackgroundImageFix"/><feColorMatrix id="feColorMatrix24" in="SourceAlpha" type="matrix" values="0 0 0 0 0 0 0 0 0 0 0 0 0 0 0 0 0 0 127 0"/><feOffset id="feOffset26" dx="2"/><feGaussianBlur id="feGaussianBlur28" stdDeviation="5"/><feColorMatrix id="feColorMatrix30" type="matrix" values="0 0 0 0 1 0 0 0 0 1 0 0 0 0 1 0 0 0 0.5 0"/><feBlend id="feBlend32" in2="BackgroundImageFix" mode="normal" result="effect1_dropShadow"/><feBlend id="feBlend34" in="SourceGraphic" in2="effect1_dropShadow" mode="normal" result="shape"/></filter><clipPath id="clip0"><rect id="rect37" width="527" height="112" x="0" y="0" style="fill:#fff"/></clipPath></defs></svg>