<?xml version="1.0" encoding="UTF-8" standalone="no"?>
<svg
   xmlns:dc="http://purl.org/dc/elements/1.1/"
   xmlns:cc="http://creativecommons.org/ns#"
   xmlns:rdf="http://www.w3.org/1999/02/22-rdf-syntax-ns#"
   xmlns:svg="http://www.w3.org/2000/svg"
   xmlns="http://www.w3.org/2000/svg"
   xmlns:sodipodi="http://sodipodi.sourceforge.net/DTD/sodipodi-0.dtd"
   xmlns:inkscape="http://www.inkscape.org/namespaces/inkscape"
   width="112.00318"
   height="112.00317"
   viewBox="0 0 112.00318 112.00317"
   version="1.1"
   id="svg86"
   sodipodi:docname="logo-dark.svg"
   inkscape:version="0.92.5 (2060ec1f9f, 2020-04-08)"
   style="fill:none">
  <metadata
     id="metadata90">
    <rdf:RDF>
      <cc:Work
         rdf:about="">
        <dc:format>image/svg+xml</dc:format>
        <dc:type
           rdf:resource="http://purl.org/dc/dcmitype/StillImage" />
        <dc:title></dc:title>
      </cc:Work>
    </rdf:RDF>
  </metadata>
  <sodipodi:namedview
     pagecolor="#ffffff"
     bordercolor="#666666"
     borderopacity="1"
     objecttolerance="10"
     gridtolerance="10"
     guidetolerance="10"
     inkscape:pageopacity="0"
     inkscape:pageshadow="2"
     inkscape:window-width="3840"
     inkscape:window-height="2272"
     id="namedview88"
     showgrid="false"
     inkscape:zoom="90.509668"
     inkscape:cx="62.780764"
     inkscape:cy="45.861698"
     inkscape:window-x="0"
     inkscape:window-y="54"
     inkscape:window-maximized="1"
     inkscape:current-layer="svg86"
     fit-margin-top="0"
     fit-margin-left="0"
     fit-margin-right="0"
     fit-margin-bottom="0" />
  <g
     id="g993"
     transform="translate(0.18159002,0.18157435)">
    <path
       d="M 91.3764,12.5564 C 67.4825,-7.08087 32.1936,-3.6302 12.5564,20.2637 -7.08088,44.1575 -3.63021,79.4465 20.2636,99.0837 44.1575,118.721 79.4464,115.27 99.0837,91.3764 118.721,67.4826 115.27,32.1936 91.3764,12.5564 Z"
       id="path2"
       inkscape:connector-curvature="0"
       style="fill:#110d27" />
    <path
       d="M 91.3764,12.5564 C 67.4825,-7.08087 32.1936,-3.6302 12.5564,20.2637 -7.08088,44.1575 -3.63021,79.4465 20.2636,99.0837 44.1575,118.721 79.4464,115.27 99.0837,91.3764 118.721,67.4826 115.27,32.1936 91.3764,12.5564 Z"
       id="path4"
       style="fill:url(#paint0_linear)"
       inkscape:connector-curvature="0" />
    <path
       d="m 80.8115,27.5626 c 1.4621,0 2.6473,1.1852 2.6473,2.6472 0,1.4621 -1.1852,2.6473 -2.6473,2.6473 -0.1952,0 -0.3454,-2e-4 -0.7145,-9e-4 -3.8939,-0.007 -5.8548,0.0759 -8.3261,0.4683 -3.3004,0.524 -6.3014,1.548 -9.1447,3.2476 -1.7498,1.046 -3.4251,2.3426 -5.0303,3.9209 -5.6266,5.5324 -10.0713,12.7575 -13.3249,21.7049 l -0.9047,2.4879 -4.9757,-1.8093 0.9046,-2.4879 c 3.5121,-9.6583 8.372,-17.5584 14.5887,-23.6709 1.9043,-1.8723 3.9135,-3.4274 6.0257,-4.69 3.4551,-2.0655 7.0944,-3.3072 11.0311,-3.9323 2.8304,-0.4494 5.0031,-0.5413 9.166,-0.5337 0.3657,7e-4 0.514,9e-4 0.7048,9e-4 z m 2.7126,14.5587 c 0,1.462 -1.1852,2.6473 -2.6473,2.6473 h -3.8349 c -6.7899,0 -12.28,2.821 -16.2829,7.6751 -3.22,3.9048 -5.1612,8.922 -5.1612,12.3083 v 2.6472 H 50.3033 V 64.752 c 0,-4.664 2.3957,-10.8563 6.3709,-15.6768 4.9699,-6.0267 11.9263,-9.6012 20.3677,-9.6012 h 3.8349 c 1.4621,0 2.6473,1.1852 2.6473,2.6473 z"
       id="path6"
       inkscape:connector-curvature="0"
       style="fill:#f6f7f9" />
    <g
       id="g10"
       style="filter:url(#filter0_d)">
      <path
         d="m 52.9506,27.5613 h 0.6618 c 1.462,0 2.6473,1.1852 2.6473,2.6473 v 56.6957 c 0,1.4621 -1.1853,2.6473 -2.6473,2.6473 h -0.6618 c -1.4621,0 -2.6473,-1.1852 -2.6473,-2.6473 V 30.2086 c 0,-1.4621 1.1852,-2.6473 2.6473,-2.6473 z m -11.9128,0.4412 h 0.6619 c 1.462,0 2.6472,1.1852 2.6472,2.6473 v 56.6957 c 0,1.4621 -1.1852,2.6473 -2.6472,2.6473 h -0.6619 c -1.462,0 -2.6472,-1.1852 -2.6472,-2.6473 V 30.6498 c 0,-1.4621 1.1852,-2.6473 2.6472,-2.6473 z"
         id="path8"
         inkscape:connector-curvature="0"
         style="fill:#ffffff" />
    </g>
  </g>
  <defs
     id="defs84">
    <filter
       id="filter0_d"
       x="22.3906"
       y="9.5612803"
       width="53.869099"
       height="98.431503"
       filterUnits="userSpaceOnUse"
       style="color-interpolation-filters:sRGB">
      <feFlood
         flood-opacity="0"
         result="BackgroundImageFix"
         id="feFlood34" />
      <feColorMatrix
         in="SourceAlpha"
         type="matrix"
         values="0 0 0 0 0 0 0 0 0 0 0 0 0 0 0 0 0 0 127 0"
         id="feColorMatrix36" />
      <feOffset
         dx="2"
         id="feOffset38" />
      <feGaussianBlur
         stdDeviation="9"
         id="feGaussianBlur40" />
      <feColorMatrix
         type="matrix"
         values="0 0 0 0 0.050414 0 0 0 0 0.0217014 0 0 0 0 0.208333 0 0 0 1 0"
         id="feColorMatrix42" />
      <feBlend
         mode="normal"
         in2="BackgroundImageFix"
         result="effect1_dropShadow"
         id="feBlend44" />
      <feBlend
         mode="normal"
         in="SourceGraphic"
         in2="effect1_dropShadow"
         result="shape"
         id="feBlend46" />
    </filter>
    <linearGradient
       id="paint0_linear"
       x1="20.2637"
       y1="99.083702"
       x2="91.376404"
       y2="12.5564"
       gradientUnits="userSpaceOnUse">
      <stop
         stop-color="#282347"
         id="stop49" />
      <stop
         offset="0.258647"
         stop-color="#1B1632"
         id="stop51" />
      <stop
         offset="0.904617"
         stop-color="#141123"
         id="stop53" />
    </linearGradient>
    <linearGradient
       id="paint1_linear"
       x1="342.87799"
       y1="25.007799"
       x2="342.87799"
       y2="87"
       gradientUnits="userSpaceOnUse">
      <stop
         stop-color="#141123"
         id="stop56" />
      <stop
         offset="1"
         stop-color="#282347"
         id="stop58" />
    </linearGradient>
    <linearGradient
       id="paint2_linear"
       x1="342.87799"
       y1="25.007799"
       x2="342.87799"
       y2="87"
       gradientUnits="userSpaceOnUse">
      <stop
         stop-color="#141123"
         id="stop61" />
      <stop
         offset="1"
         stop-color="#282347"
         id="stop63" />
    </linearGradient>
    <linearGradient
       id="paint3_linear"
       x1="342.87799"
       y1="25.007799"
       x2="342.87799"
       y2="87"
       gradientUnits="userSpaceOnUse">
      <stop
         stop-color="#141123"
         id="stop66" />
      <stop
         offset="1"
         stop-color="#282347"
         id="stop68" />
    </linearGradient>
    <linearGradient
       id="paint4_linear"
       x1="342.87799"
       y1="25.007799"
       x2="342.87799"
       y2="87"
       gradientUnits="userSpaceOnUse">
      <stop
         stop-color="#141123"
         id="stop71" />
      <stop
         offset="1"
         stop-color="#282347"
         id="stop73" />
    </linearGradient>
    <linearGradient
       id="paint5_linear"
       x1="342.87799"
       y1="25.007799"
       x2="342.87799"
       y2="87"
       gradientUnits="userSpaceOnUse">
      <stop
         stop-color="#141123"
         id="stop76" />
      <stop
         offset="1"
         stop-color="#282347"
         id="stop78" />
    </linearGradient>
    <clipPath
       id="clip0">
      <rect
         width="527"
         height="112"
         id="rect81"
         x="0"
         y="0"
         style="fill:#ffffff" />
    </clipPath>
  </defs>
</svg>
