<svg xmlns="http://www.w3.org/2000/svg" xmlns:svg="http://www.w3.org/2000/svg" id="svg86" width="112.003" height="112.003" version="1.1" viewBox="0 0 112.003 112.003" style="fill:none"><metadata id="metadata90"/><g id="g993" transform="translate(0.18159002,0.18157435)"><path id="path2" d="M 91.3764,12.5564 C 67.4825,-7.08087 32.1936,-3.6302 12.5564,20.2637 -7.08088,44.1575 -3.63021,79.4465 20.2636,99.0837 44.1575,118.721 79.4464,115.27 99.0837,91.3764 118.721,67.4826 115.27,32.1936 91.3764,12.5564 Z" style="fill:#110d27"/><path id="path4" d="M 91.3764,12.5564 C 67.4825,-7.08087 32.1936,-3.6302 12.5564,20.2637 -7.08088,44.1575 -3.63021,79.4465 20.2636,99.0837 44.1575,118.721 79.4464,115.27 99.0837,91.3764 118.721,67.4826 115.27,32.1936 91.3764,12.5564 Z" style="fill:url(#paint0_linear)"/><path id="path6" d="m 80.8115,27.5626 c 1.4621,0 2.6473,1.1852 2.6473,2.6472 0,1.4621 -1.1852,2.6473 -2.6473,2.6473 -0.1952,0 -0.3454,-2e-4 -0.7145,-9e-4 -3.8939,-0.007 -5.8548,0.0759 -8.3261,0.4683 -3.3004,0.524 -6.3014,1.548 -9.1447,3.2476 -1.7498,1.046 -3.4251,2.3426 -5.0303,3.9209 -5.6266,5.5324 -10.0713,12.7575 -13.3249,21.7049 l -0.9047,2.4879 -4.9757,-1.8093 0.9046,-2.4879 c 3.5121,-9.6583 8.372,-17.5584 14.5887,-23.6709 1.9043,-1.8723 3.9135,-3.4274 6.0257,-4.69 3.4551,-2.0655 7.0944,-3.3072 11.0311,-3.9323 2.8304,-0.4494 5.0031,-0.5413 9.166,-0.5337 0.3657,7e-4 0.514,9e-4 0.7048,9e-4 z m 2.7126,14.5587 c 0,1.462 -1.1852,2.6473 -2.6473,2.6473 h -3.8349 c -6.7899,0 -12.28,2.821 -16.2829,7.6751 -3.22,3.9048 -5.1612,8.922 -5.1612,12.3083 v 2.6472 H 50.3033 V 64.752 c 0,-4.664 2.3957,-10.8563 6.3709,-15.6768 4.9699,-6.0267 11.9263,-9.6012 20.3677,-9.6012 h 3.8349 c 1.4621,0 2.6473,1.1852 2.6473,2.6473 z" style="fill:#f6f7f9"/><g id="g10" style="filter:url(#filter0_d)"><path id="path8" d="m 52.9506,27.5613 h 0.6618 c 1.462,0 2.6473,1.1852 2.6473,2.6473 v 56.6957 c 0,1.4621 -1.1853,2.6473 -2.6473,2.6473 h -0.6618 c -1.4621,0 -2.6473,-1.1852 -2.6473,-2.6473 V 30.2086 c 0,-1.4621 1.1852,-2.6473 2.6473,-2.6473 z m -11.9128,0.4412 h 0.6619 c 1.462,0 2.6472,1.1852 2.6472,2.6473 v 56.6957 c 0,1.4621 -1.1852,2.6473 -2.6472,2.6473 h -0.6619 c -1.462,0 -2.6472,-1.1852 -2.6472,-2.6473 V 30.6498 c 0,-1.4621 1.1852,-2.6473 2.6472,-2.6473 z" style="fill:#fff"/></g></g><defs id="defs84"><filter id="filter0_d" width="53.869" height="98.432" x="22.391" y="9.561" filterUnits="userSpaceOnUse" style="color-interpolation-filters:sRGB"><feFlood id="feFlood34" flood-opacity="0" result="BackgroundImageFix"/><feColorMatrix id="feColorMatrix36" in="SourceAlpha" type="matrix" values="0 0 0 0 0 0 0 0 0 0 0 0 0 0 0 0 0 0 127 0"/><feOffset id="feOffset38" dx="2"/><feGaussianBlur id="feGaussianBlur40" stdDeviation="9"/><feColorMatrix id="feColorMatrix42" type="matrix" values="0 0 0 0 0.050414 0 0 0 0 0.0217014 0 0 0 0 0.208333 0 0 0 1 0"/><feBlend id="feBlend44" in2="BackgroundImageFix" mode="normal" result="effect1_dropShadow"/><feBlend id="feBlend46" in="SourceGraphic" in2="effect1_dropShadow" mode="normal" result="shape"/></filter><linearGradient id="paint0_linear" x1="20.264" x2="91.376" y1="99.084" y2="12.556" gradientUnits="userSpaceOnUse"><stop id="stop49" stop-color="#282347"/><stop id="stop51" offset=".259" stop-color="#1B1632"/><stop id="stop53" offset=".905" stop-color="#141123"/></linearGradient><linearGradient id="paint1_linear" x1="342.878" x2="342.878" y1="25.008" y2="87" gradientUnits="userSpaceOnUse"><stop id="stop56" stop-color="#141123"/><stop id="stop58" offset="1" stop-color="#282347"/></linearGradient><linearGradient id="paint2_linear" x1="342.878" x2="342.878" y1="25.008" y2="87" gradientUnits="userSpaceOnUse"><stop id="stop61" stop-color="#141123"/><stop id="stop63" offset="1" stop-color="#282347"/></linearGradient><linearGradient id="paint3_linear" x1="342.878" x2="342.878" y1="25.008" y2="87" gradientUnits="userSpaceOnUse"><stop id="stop66" stop-color="#141123"/><stop id="stop68" offset="1" stop-color="#282347"/></linearGradient><linearGradient id="paint4_linear" x1="342.878" x2="342.878" y1="25.008" y2="87" gradientUnits="userSpaceOnUse"><stop id="stop71" stop-color="#141123"/><stop id="stop73" offset="1" stop-color="#282347"/></linearGradient><linearGradient id="paint5_linear" x1="342.878" x2="342.878" y1="25.008" y2="87" gradientUnits="userSpaceOnUse"><stop id="stop76" stop-color="#141123"/><stop id="stop78" offset="1" stop-color="#282347"/></linearGradient><clipPath id="clip0"><rect id="rect81" width="527" height="112" x="0" y="0" style="fill:#fff"/></clipPath></defs></svg>