<?xml version="1.0" encoding="UTF-8" standalone="no"?>
<svg
   xmlns:dc="http://purl.org/dc/elements/1.1/"
   xmlns:cc="http://creativecommons.org/ns#"
   xmlns:rdf="http://www.w3.org/1999/02/22-rdf-syntax-ns#"
   xmlns:svg="http://www.w3.org/2000/svg"
   xmlns="http://www.w3.org/2000/svg"
   xmlns:sodipodi="http://sodipodi.sourceforge.net/DTD/sodipodi-0.dtd"
   xmlns:inkscape="http://www.inkscape.org/namespaces/inkscape"
   width="112"
   height="112"
   viewBox="0 0 112 112"
   version="1.1"
   id="svg42"
   sodipodi:docname="logo-light.svg"
   inkscape:version="0.92.5 (2060ec1f9f, 2020-04-08)"
   style="fill:none">
  <metadata
     id="metadata46">
    <rdf:RDF>
      <cc:Work
         rdf:about="">
        <dc:format>image/svg+xml</dc:format>
        <dc:type
           rdf:resource="http://purl.org/dc/dcmitype/StillImage" />
        <dc:title></dc:title>
      </cc:Work>
    </rdf:RDF>
  </metadata>
  <sodipodi:namedview
     pagecolor="#ffffff"
     bordercolor="#666666"
     borderopacity="1"
     objecttolerance="10"
     gridtolerance="10"
     guidetolerance="10"
     inkscape:pageopacity="0"
     inkscape:pageshadow="2"
     inkscape:window-width="3840"
     inkscape:window-height="2272"
     id="namedview44"
     showgrid="false"
     inkscape:zoom="1.4060721"
     inkscape:cx="263.5"
     inkscape:cy="56"
     inkscape:window-x="0"
     inkscape:window-y="54"
     inkscape:window-maximized="1"
     inkscape:current-layer="svg42"
     fit-margin-top="0"
     fit-margin-left="0"
     fit-margin-right="0"
     fit-margin-bottom="0" />
  <g
     id="g885">
    <path
       d="M 56,112 C 86.9279,112 112,86.9279 112,56 112,25.0721 86.9279,0 56,0 25.0721,0 0,25.0721 0,56 c 0,30.9279 25.0721,56 56,56 z"
       id="path2"
       inkscape:connector-curvature="0"
       style="fill:#f6f3ed" />
    <path
       d="m 80.8114,27.5626 c 1.4621,0 2.6473,1.1852 2.6473,2.6472 0,1.4621 -1.1852,2.6473 -2.6473,2.6473 -0.1952,0 -0.3454,-2e-4 -0.7145,-9e-4 -3.8939,-0.007 -5.8548,0.0759 -8.3261,0.4683 -3.3004,0.524 -6.3014,1.548 -9.1447,3.2476 -1.7498,1.046 -3.4251,2.3427 -5.0303,3.9209 -5.6267,5.5324 -10.0713,12.7575 -13.3249,21.7049 l -0.9047,2.4879 -4.9758,-1.8093 0.9047,-2.4879 c 3.5121,-9.6583 8.372,-17.5584 14.5887,-23.6709 1.9042,-1.8723 3.9135,-3.4274 6.0257,-4.69 3.4551,-2.0655 7.0944,-3.3072 11.0311,-3.9323 2.8304,-0.4494 5.0031,-0.5413 9.1659,-0.5337 0.3658,7e-4 0.5141,9e-4 0.7049,9e-4 z m 2.7126,14.5587 c 0,1.462 -1.1852,2.6473 -2.6473,2.6473 h -3.8349 c -6.7899,0 -12.28,2.821 -16.2829,7.6751 -3.2201,3.9048 -5.1612,8.922 -5.1612,12.3082 v 2.6473 h -5.2945 v -2.6473 c 0,-4.6639 2.3957,-10.8562 6.3709,-15.6767 4.9699,-6.0267 11.9263,-9.6012 20.3677,-9.6012 h 3.8349 c 1.4621,0 2.6473,1.1852 2.6473,2.6473 z"
       id="path4"
       inkscape:connector-curvature="0"
       style="fill:#0e0d10" />
    <g
       id="g8"
       style="filter:url(#filter0_d)">
      <path
         d="m 52.9504,27.5613 h 0.6619 c 1.462,0 2.6472,1.1852 2.6472,2.6473 v 56.6957 c 0,1.4621 -1.1852,2.6473 -2.6472,2.6473 h -0.6619 c -1.462,0 -2.6472,-1.1852 -2.6472,-2.6473 V 30.2086 c 0,-1.4621 1.1852,-2.6473 2.6472,-2.6473 z m -11.9127,0.4412 h 0.6618 c 1.4621,0 2.6473,1.1852 2.6473,2.6473 v 56.6957 c 0,1.4621 -1.1852,2.6473 -2.6473,2.6473 h -0.6618 c -1.462,0 -2.6473,-1.1852 -2.6473,-2.6473 V 30.6498 c 0,-1.4621 1.1853,-2.6473 2.6473,-2.6473 z"
         id="path6"
         inkscape:connector-curvature="0"
         style="fill:#0e0d10" />
    </g>
  </g>
  <defs
     id="defs40">
    <filter
       id="filter0_d"
       x="30.3904"
       y="17.5613"
       width="37.869099"
       height="82.431503"
       filterUnits="userSpaceOnUse"
       style="color-interpolation-filters:sRGB">
      <feFlood
         flood-opacity="0"
         result="BackgroundImageFix"
         id="feFlood22" />
      <feColorMatrix
         in="SourceAlpha"
         type="matrix"
         values="0 0 0 0 0 0 0 0 0 0 0 0 0 0 0 0 0 0 127 0"
         id="feColorMatrix24" />
      <feOffset
         dx="2"
         id="feOffset26" />
      <feGaussianBlur
         stdDeviation="5"
         id="feGaussianBlur28" />
      <feColorMatrix
         type="matrix"
         values="0 0 0 0 1 0 0 0 0 1 0 0 0 0 1 0 0 0 0.5 0"
         id="feColorMatrix30" />
      <feBlend
         mode="normal"
         in2="BackgroundImageFix"
         result="effect1_dropShadow"
         id="feBlend32" />
      <feBlend
         mode="normal"
         in="SourceGraphic"
         in2="effect1_dropShadow"
         result="shape"
         id="feBlend34" />
    </filter>
    <clipPath
       id="clip0">
      <rect
         width="527"
         height="112"
         id="rect37"
         x="0"
         y="0"
         style="fill:#ffffff" />
    </clipPath>
  </defs>
</svg>
