<svg xmlns="http://www.w3.org/2000/svg" xmlns:svg="http://www.w3.org/2000/svg" id="svg86" width="527" height="112" fill="none" version="1.1" viewBox="0 0 527 112"><metadata id="metadata90"/><g id="g32" clip-path="url(#clip0)"><path id="path2" fill="#110D27" d="M91.3764 12.5564C67.4825 -7.08087 32.1936 -3.6302 12.5564 20.2637C-7.08088 44.1575 -3.63021 79.4465 20.2636 99.0837C44.1575 118.721 79.4464 115.27 99.0837 91.3764C118.721 67.4826 115.27 32.1936 91.3764 12.5564Z"/><path id="path4" fill="url(#paint0_linear)" d="M91.3764 12.5564C67.4825 -7.08087 32.1936 -3.6302 12.5564 20.2637C-7.08088 44.1575 -3.63021 79.4465 20.2636 99.0837C44.1575 118.721 79.4464 115.27 99.0837 91.3764C118.721 67.4826 115.27 32.1936 91.3764 12.5564Z"/><path id="path6" fill="#F6F7F9" d="M80.8115 27.5626C82.2736 27.5626 83.4588 28.7478 83.4588 30.2098C83.4588 31.6719 82.2736 32.8571 80.8115 32.8571C80.6163 32.8571 80.4661 32.8569 80.097 32.8562C76.2031 32.8492 74.2422 32.9321 71.7709 33.3245C68.4705 33.8485 65.4695 34.8725 62.6262 36.5721C60.8764 37.6181 59.2011 38.9147 57.5959 40.493C51.9693 46.0254 47.5246 53.2505 44.271 62.1979L43.3663 64.6858L38.3906 62.8765L39.2952 60.3886C42.8073 50.7303 47.6672 42.8302 53.8839 36.7177C55.7882 34.8454 57.7974 33.2903 59.9096 32.0277C63.3647 29.9622 67.004 28.7205 70.9407 28.0954C73.7711 27.646 75.9438 27.5541 80.1067 27.5617C80.4724 27.5624 80.6207 27.5626 80.8115 27.5626ZM83.5241 42.1213C83.5241 43.5833 82.3389 44.7686 80.8768 44.7686H77.0419C70.252 44.7686 64.7619 47.5896 60.759 52.4437C57.539 56.3485 55.5978 61.3657 55.5978 64.752V67.3992H50.3033V64.752C50.3033 60.088 52.699 53.8957 56.6742 49.0752C61.6441 43.0485 68.6005 39.474 77.0419 39.474H80.8768C82.3389 39.474 83.5241 40.6592 83.5241 42.1213Z"/><g id="g10" filter="url(#filter0_d)"><path id="path8" fill="#fff" d="M52.9506 27.5613H53.6124C55.0744 27.5613 56.2597 28.7465 56.2597 30.2086V86.9043C56.2597 88.3664 55.0744 89.5516 53.6124 89.5516H52.9506C51.4885 89.5516 50.3033 88.3664 50.3033 86.9043V30.2086C50.3033 28.7465 51.4885 27.5613 52.9506 27.5613ZM41.0378 28.0025H41.6997C43.1617 28.0025 44.3469 29.1877 44.3469 30.6498V87.3455C44.3469 88.8076 43.1617 89.9928 41.6997 89.9928H41.0378C39.5758 89.9928 38.3906 88.8076 38.3906 87.3455V30.6498C38.3906 29.1877 39.5758 28.0025 41.0378 28.0025Z"/></g><path id="path12" fill="#110D27" d="M196.633 25.0078C199.363 25.0078 201.897 25.5439 204.236 26.6161C206.673 27.5908 208.769 28.9554 210.523 30.7099C212.278 32.4644 213.642 34.5113 214.617 36.8507C215.592 39.19 216.079 41.6755 216.079 44.3073C216.079 48.8884 214.909 52.7873 212.57 56.0039C210.328 59.123 207.258 61.3161 203.359 62.5832L217.834 82.3213C218.321 83.0036 218.565 83.7347 218.565 84.5144C218.565 85.1967 218.37 85.7816 217.98 86.2689C217.59 86.7563 216.908 87 215.933 87H208.33C207.063 87 206.088 86.5126 205.406 85.5379L189.323 63.7529H183.036C181.964 63.7529 181.038 63.4118 180.258 62.7295C179.478 61.9497 179.088 61.0237 179.088 59.9515V56.2963C179.088 55.2241 179.478 54.2981 180.258 53.5184C181.038 52.7386 181.964 52.3487 183.036 52.3487H196.195C198.534 52.3487 200.435 51.6177 201.897 50.1556C203.359 48.6935 204.09 46.7928 204.09 44.4535C204.09 42.3091 203.31 40.5059 201.751 39.0438C200.289 37.5817 198.437 36.8507 196.195 36.8507H171.339V83.0524C171.339 84.1246 170.95 85.0505 170.17 85.8303C169.39 86.6101 168.464 87 167.392 87H162.421C161.349 87 160.423 86.6101 159.643 85.8303C158.863 85.0505 158.473 84.1246 158.473 83.0524V28.9554C158.473 27.8832 158.863 26.9573 159.643 26.1775C160.423 25.3977 161.349 25.0078 162.421 25.0078H196.633Z"/><path id="path14" fill="url(#paint1_linear)" d="M196.633 25.0078C199.363 25.0078 201.897 25.5439 204.236 26.6161C206.673 27.5908 208.769 28.9554 210.523 30.7099C212.278 32.4644 213.642 34.5113 214.617 36.8507C215.592 39.19 216.079 41.6755 216.079 44.3073C216.079 48.8884 214.909 52.7873 212.57 56.0039C210.328 59.123 207.258 61.3161 203.359 62.5832L217.834 82.3213C218.321 83.0036 218.565 83.7347 218.565 84.5144C218.565 85.1967 218.37 85.7816 217.98 86.2689C217.59 86.7563 216.908 87 215.933 87H208.33C207.063 87 206.088 86.5126 205.406 85.5379L189.323 63.7529H183.036C181.964 63.7529 181.038 63.4118 180.258 62.7295C179.478 61.9497 179.088 61.0237 179.088 59.9515V56.2963C179.088 55.2241 179.478 54.2981 180.258 53.5184C181.038 52.7386 181.964 52.3487 183.036 52.3487H196.195C198.534 52.3487 200.435 51.6177 201.897 50.1556C203.359 48.6935 204.09 46.7928 204.09 44.4535C204.09 42.3091 203.31 40.5059 201.751 39.0438C200.289 37.5817 198.437 36.8507 196.195 36.8507H171.339V83.0524C171.339 84.1246 170.95 85.0505 170.17 85.8303C169.39 86.6101 168.464 87 167.392 87H162.421C161.349 87 160.423 86.6101 159.643 85.8303C158.863 85.0505 158.473 84.1246 158.473 83.0524V28.9554C158.473 27.8832 158.863 26.9573 159.643 26.1775C160.423 25.3977 161.349 25.0078 162.421 25.0078H196.633Z"/><path id="path16" fill="#110D27" d="M268.913 28.3706C269.401 27.3959 270.083 26.6161 270.96 26.0313C271.935 25.349 272.861 25.0078 273.738 25.0078H278.709C279.587 25.0078 280.513 25.349 281.487 26.0313C282.462 26.6161 283.193 27.3471 283.68 28.2244L312.191 82.0289C312.483 82.5163 312.678 83.0036 312.776 83.491C312.873 83.8809 312.922 84.1246 312.922 84.222C312.922 85.0018 312.63 85.6841 312.045 86.2689C311.557 86.7563 310.875 87 309.998 87H303.565C302.882 87 302.151 86.7563 301.372 86.2689C300.689 85.7816 300.153 85.1967 299.763 84.5144L293.623 73.1102H270.96C270.083 73.1102 269.352 72.8665 268.767 72.3792C268.28 71.7943 268.036 71.112 268.036 70.3323C268.036 70.1373 268.182 69.6987 268.475 69.0164C268.767 68.2366 269.498 66.6283 270.668 64.1915C271.155 63.5092 271.74 62.9244 272.422 62.437C273.105 61.9497 273.836 61.706 274.615 61.706H287.628L276.078 39.4824L252.977 84.3682C252.684 85.148 252.099 85.7816 251.222 86.2689C250.442 86.7563 249.76 87 249.175 87H243.181C242.206 87 241.475 86.7563 240.988 86.2689C240.5 85.6841 240.257 85.0018 240.257 84.222C240.257 83.8321 240.5 83.0524 240.988 81.8827L268.913 28.3706Z"/><path id="path18" fill="url(#paint2_linear)" d="M268.913 28.3706C269.401 27.3959 270.083 26.6161 270.96 26.0313C271.935 25.349 272.861 25.0078 273.738 25.0078H278.709C279.587 25.0078 280.513 25.349 281.487 26.0313C282.462 26.6161 283.193 27.3471 283.68 28.2244L312.191 82.0289C312.483 82.5163 312.678 83.0036 312.776 83.491C312.873 83.8809 312.922 84.1246 312.922 84.222C312.922 85.0018 312.63 85.6841 312.045 86.2689C311.557 86.7563 310.875 87 309.998 87H303.565C302.882 87 302.151 86.7563 301.372 86.2689C300.689 85.7816 300.153 85.1967 299.763 84.5144L293.623 73.1102H270.96C270.083 73.1102 269.352 72.8665 268.767 72.3792C268.28 71.7943 268.036 71.112 268.036 70.3323C268.036 70.1373 268.182 69.6987 268.475 69.0164C268.767 68.2366 269.498 66.6283 270.668 64.1915C271.155 63.5092 271.74 62.9244 272.422 62.437C273.105 61.9497 273.836 61.706 274.615 61.706H287.628L276.078 39.4824L252.977 84.3682C252.684 85.148 252.099 85.7816 251.222 86.2689C250.442 86.7563 249.76 87 249.175 87H243.181C242.206 87 241.475 86.7563 240.988 86.2689C240.5 85.6841 240.257 85.0018 240.257 84.222C240.257 83.8321 240.5 83.0524 240.988 81.8827L268.913 28.3706Z"/><path id="path20" fill="#110D27" d="M339.938 28.9554C339.938 27.8832 340.328 26.9573 341.108 26.1775C341.888 25.3977 342.813 25.0078 343.886 25.0078H349.149C350.221 25.0078 351.147 25.3977 351.927 26.1775C352.707 26.9573 353.097 27.8832 353.097 28.9554V83.0524C353.097 84.1246 352.707 85.0505 351.927 85.8303C351.147 86.6101 350.221 87 349.149 87H343.886C342.813 87 341.888 86.6101 341.108 85.8303C340.328 85.0505 339.938 84.1246 339.938 83.0524V28.9554Z"/><path id="path22" fill="url(#paint3_linear)" d="M339.938 28.9554C339.938 27.8832 340.328 26.9573 341.108 26.1775C341.888 25.3977 342.813 25.0078 343.886 25.0078H349.149C350.221 25.0078 351.147 25.3977 351.927 26.1775C352.707 26.9573 353.097 27.8832 353.097 28.9554V83.0524C353.097 84.1246 352.707 85.0505 351.927 85.8303C351.147 86.6101 350.221 87 349.149 87H343.886C342.813 87 341.888 86.6101 341.108 85.8303C340.328 85.0505 339.938 84.1246 339.938 83.0524V28.9554Z"/><path id="path24" fill="#110D27" d="M386.653 28.9554C386.653 27.8832 387.043 26.9573 387.823 26.1775C388.603 25.3977 389.529 25.0078 390.601 25.0078H395.572C396.644 25.0078 397.522 25.3977 398.204 26.1775C398.984 26.9573 399.373 27.8832 399.373 28.9554V75.1571H436.949C438.021 75.1571 438.947 75.547 439.727 76.3268C440.507 77.1066 440.897 78.0326 440.897 79.1047V83.0524C440.897 84.1246 440.507 85.0505 439.727 85.8303C438.947 86.6101 438.021 87 436.949 87H390.601C389.529 87 388.603 86.6101 387.823 85.8303C387.043 85.0505 386.653 84.1246 386.653 83.0524V28.9554Z"/><path id="path26" fill="url(#paint4_linear)" d="M386.653 28.9554C386.653 27.8832 387.043 26.9573 387.823 26.1775C388.603 25.3977 389.529 25.0078 390.601 25.0078H395.572C396.644 25.0078 397.522 25.3977 398.204 26.1775C398.984 26.9573 399.373 27.8832 399.373 28.9554V75.1571H436.949C438.021 75.1571 438.947 75.547 439.727 76.3268C440.507 77.1066 440.897 78.0326 440.897 79.1047V83.0524C440.897 84.1246 440.507 85.0505 439.727 85.8303C438.947 86.6101 438.021 87 436.949 87H390.601C389.529 87 388.603 86.6101 387.823 85.8303C387.043 85.0505 386.653 84.1246 386.653 83.0524V28.9554Z"/><path id="path28" fill="#110D27" d="M465.582 70.3323C465.582 69.2601 465.924 68.3341 466.606 67.5543C467.386 66.6771 468.312 66.2384 469.384 66.2384H474.062C475.037 66.2384 475.866 66.5796 476.548 67.2619C477.23 67.8467 477.669 68.5778 477.864 69.455C478.254 71.0146 479.034 72.3792 480.203 73.5488C481.373 74.621 482.786 75.1571 484.443 75.1571H508.421C510.273 75.1571 511.833 74.4748 513.1 73.1102C514.367 71.6481 515.001 69.9911 515.001 68.1391C515.001 66.1897 514.367 64.5327 513.1 63.1681C511.833 61.8035 510.273 61.1212 508.421 61.1212H485.467C482.932 61.1212 480.544 60.6825 478.302 59.8053C476.158 58.8306 474.257 57.5634 472.6 56.0039C470.943 54.3469 469.627 52.4462 468.653 50.3018C467.678 48.1574 467.191 45.8181 467.191 43.2838C467.191 40.7495 467.678 38.4102 468.653 36.2658C469.627 34.024 470.943 32.0745 472.6 30.4175C474.257 28.7605 476.158 27.4446 478.302 26.4699C480.544 25.4952 482.932 25.0078 485.467 25.0078H508.129C510.371 25.0078 512.515 25.4464 514.562 26.3237C516.609 27.1035 518.412 28.2244 519.972 29.6865C521.629 31.0511 522.945 32.7081 523.919 34.6575C524.992 36.5095 525.674 38.5564 525.966 40.7983C525.966 42.0654 525.576 43.0889 524.797 43.8686C524.114 44.5509 523.237 44.8921 522.165 44.8921H517.632C515.391 44.8921 514.123 43.8199 513.831 41.6755C513.539 40.3109 512.808 39.19 511.638 38.3127C510.566 37.338 509.299 36.8507 507.836 36.8507H485.32C483.663 36.8507 482.201 37.4842 480.934 38.7514C479.765 40.0185 479.18 41.4806 479.18 43.1376C479.18 44.7946 479.765 46.2567 480.934 47.5238C482.201 48.791 483.663 49.4245 485.32 49.4245H508.275C510.907 49.4245 513.344 49.9119 515.586 50.8866C517.925 51.7639 519.972 53.0797 521.726 54.8342C523.481 56.4913 524.845 58.4894 525.82 60.8288C526.795 63.0706 527.282 65.5074 527.282 68.1391C527.282 70.7709 526.795 73.2564 525.82 75.5958C524.845 77.8376 523.481 79.8358 521.726 81.5903C519.972 83.2473 517.925 84.5632 515.586 85.5379C513.344 86.5126 510.907 87 508.275 87H484.297C481.958 87 479.667 86.5126 477.425 85.5379C475.183 84.5632 473.185 83.296 471.431 81.7365C469.676 80.0795 468.263 78.2762 467.191 76.3268C466.118 74.3774 465.582 72.3792 465.582 70.3323Z"/><path id="path30" fill="url(#paint5_linear)" d="M465.582 70.3323C465.582 69.2601 465.924 68.3341 466.606 67.5543C467.386 66.6771 468.312 66.2384 469.384 66.2384H474.062C475.037 66.2384 475.866 66.5796 476.548 67.2619C477.23 67.8467 477.669 68.5778 477.864 69.455C478.254 71.0146 479.034 72.3792 480.203 73.5488C481.373 74.621 482.786 75.1571 484.443 75.1571H508.421C510.273 75.1571 511.833 74.4748 513.1 73.1102C514.367 71.6481 515.001 69.9911 515.001 68.1391C515.001 66.1897 514.367 64.5327 513.1 63.1681C511.833 61.8035 510.273 61.1212 508.421 61.1212H485.467C482.932 61.1212 480.544 60.6825 478.302 59.8053C476.158 58.8306 474.257 57.5634 472.6 56.0039C470.943 54.3469 469.627 52.4462 468.653 50.3018C467.678 48.1574 467.191 45.8181 467.191 43.2838C467.191 40.7495 467.678 38.4102 468.653 36.2658C469.627 34.024 470.943 32.0745 472.6 30.4175C474.257 28.7605 476.158 27.4446 478.302 26.4699C480.544 25.4952 482.932 25.0078 485.467 25.0078H508.129C510.371 25.0078 512.515 25.4464 514.562 26.3237C516.609 27.1035 518.412 28.2244 519.972 29.6865C521.629 31.0511 522.945 32.7081 523.919 34.6575C524.992 36.5095 525.674 38.5564 525.966 40.7983C525.966 42.0654 525.576 43.0889 524.797 43.8686C524.114 44.5509 523.237 44.8921 522.165 44.8921H517.632C515.391 44.8921 514.123 43.8199 513.831 41.6755C513.539 40.3109 512.808 39.19 511.638 38.3127C510.566 37.338 509.299 36.8507 507.836 36.8507H485.32C483.663 36.8507 482.201 37.4842 480.934 38.7514C479.765 40.0185 479.18 41.4806 479.18 43.1376C479.18 44.7946 479.765 46.2567 480.934 47.5238C482.201 48.791 483.663 49.4245 485.32 49.4245H508.275C510.907 49.4245 513.344 49.9119 515.586 50.8866C517.925 51.7639 519.972 53.0797 521.726 54.8342C523.481 56.4913 524.845 58.4894 525.82 60.8288C526.795 63.0706 527.282 65.5074 527.282 68.1391C527.282 70.7709 526.795 73.2564 525.82 75.5958C524.845 77.8376 523.481 79.8358 521.726 81.5903C519.972 83.2473 517.925 84.5632 515.586 85.5379C513.344 86.5126 510.907 87 508.275 87H484.297C481.958 87 479.667 86.5126 477.425 85.5379C475.183 84.5632 473.185 83.296 471.431 81.7365C469.676 80.0795 468.263 78.2762 467.191 76.3268C466.118 74.3774 465.582 72.3792 465.582 70.3323Z"/></g><defs id="defs84"><filter id="filter0_d" width="53.869" height="98.431" x="22.391" y="9.561" color-interpolation-filters="sRGB" filterUnits="userSpaceOnUse"><feFlood id="feFlood34" flood-opacity="0" result="BackgroundImageFix"/><feColorMatrix id="feColorMatrix36" in="SourceAlpha" type="matrix" values="0 0 0 0 0 0 0 0 0 0 0 0 0 0 0 0 0 0 127 0"/><feOffset id="feOffset38" dx="2"/><feGaussianBlur id="feGaussianBlur40" stdDeviation="9"/><feColorMatrix id="feColorMatrix42" type="matrix" values="0 0 0 0 0.050414 0 0 0 0 0.0217014 0 0 0 0 0.208333 0 0 0 1 0"/><feBlend id="feBlend44" in2="BackgroundImageFix" mode="normal" result="effect1_dropShadow"/><feBlend id="feBlend46" in="SourceGraphic" in2="effect1_dropShadow" mode="normal" result="shape"/></filter><linearGradient id="paint0_linear" x1="20.264" x2="91.376" y1="99.084" y2="12.556" gradientUnits="userSpaceOnUse"><stop id="stop49" stop-color="#282347"/><stop id="stop51" offset=".259" stop-color="#1B1632"/><stop id="stop53" offset=".905" stop-color="#141123"/></linearGradient><linearGradient id="paint1_linear" x1="342.878" x2="342.878" y1="25.008" y2="87" gradientUnits="userSpaceOnUse"><stop id="stop56" stop-color="#141123"/><stop id="stop58" offset="1" stop-color="#282347"/></linearGradient><linearGradient id="paint2_linear" x1="342.878" x2="342.878" y1="25.008" y2="87" gradientUnits="userSpaceOnUse"><stop id="stop61" stop-color="#141123"/><stop id="stop63" offset="1" stop-color="#282347"/></linearGradient><linearGradient id="paint3_linear" x1="342.878" x2="342.878" y1="25.008" y2="87" gradientUnits="userSpaceOnUse"><stop id="stop66" stop-color="#141123"/><stop id="stop68" offset="1" stop-color="#282347"/></linearGradient><linearGradient id="paint4_linear" x1="342.878" x2="342.878" y1="25.008" y2="87" gradientUnits="userSpaceOnUse"><stop id="stop71" stop-color="#141123"/><stop id="stop73" offset="1" stop-color="#282347"/></linearGradient><linearGradient id="paint5_linear" x1="342.878" x2="342.878" y1="25.008" y2="87" gradientUnits="userSpaceOnUse"><stop id="stop76" stop-color="#141123"/><stop id="stop78" offset="1" stop-color="#282347"/></linearGradient><clipPath id="clip0"><rect id="rect81" width="527" height="112" fill="#fff"/></clipPath></defs></svg>