<?xml version="1.0" encoding="UTF-8" standalone="no"?>
<svg
   xmlns:dc="http://purl.org/dc/elements/1.1/"
   xmlns:cc="http://creativecommons.org/ns#"
   xmlns:rdf="http://www.w3.org/1999/02/22-rdf-syntax-ns#"
   xmlns:svg="http://www.w3.org/2000/svg"
   xmlns="http://www.w3.org/2000/svg"
   xmlns:sodipodi="http://sodipodi.sourceforge.net/DTD/sodipodi-0.dtd"
   xmlns:inkscape="http://www.inkscape.org/namespaces/inkscape"
   inkscape:version="0.92.5 (2060ec1f9f, 2020-04-08)"
   sodipodi:docname="logo-light.svg"
   id="svg19"
   version="1.1"
   viewBox="0 0 550 550"
   height="550px"
   width="550px">
  <metadata
     id="metadata23">
    <rdf:RDF>
      <cc:Work
         rdf:about="">
        <dc:format>image/svg+xml</dc:format>
        <dc:type
           rdf:resource="http://purl.org/dc/dcmitype/StillImage" />
        <dc:title>rails_logo_a</dc:title>
      </cc:Work>
    </rdf:RDF>
  </metadata>
  <sodipodi:namedview
     pagecolor="#ffffff"
     bordercolor="#666666"
     borderopacity="1"
     objecttolerance="10"
     gridtolerance="10"
     guidetolerance="10"
     inkscape:pageopacity="0"
     inkscape:pageshadow="2"
     inkscape:window-width="3840"
     inkscape:window-height="2272"
     id="namedview21"
     showgrid="false"
     inkscape:zoom="0.42909091"
     inkscape:cx="-280.82627"
     inkscape:cy="275"
     inkscape:window-x="0"
     inkscape:window-y="54"
     inkscape:window-maximized="1"
     inkscape:current-layer="svg19" />
  <!-- Generator: Sketch 52.6 (67491) - http://www.bohemiancoding.com/sketch -->
  <title
     id="title2">rails_logo_a</title>
  <desc
     id="desc4">Created with Sketch.</desc>
  <defs
     id="defs11">
    <linearGradient
       x1="155.90441"
       y1="44.485799"
       x2="65.739928"
       y2="96.106037"
       id="linearGradient-1"
       gradientTransform="scale(1.0643911,0.93950432)"
       gradientUnits="userSpaceOnUse">
      <stop
         stop-color="#FFFFFF"
         offset="0%"
         id="stop6" />
      <stop
         stop-color="#FFFFFF"
         stop-opacity="0.210739357"
         offset="100%"
         id="stop8" />
    </linearGradient>
    <linearGradient
       gradientUnits="userSpaceOnUse"
       gradientTransform="scale(1.0643911,0.93950432)"
       id="linearGradient-1-568"
       y2="96.106037"
       x2="65.739928"
       y1="44.485799"
       x1="155.90441">
      <stop
         id="stop898"
         offset="0%"
         stop-color="#000000" />
      <stop
         id="stop900"
         offset="100%"
         stop-opacity="0.210739357"
         stop-color="#000000" />
    </linearGradient>
  </defs>
  <circle
     id="Oval"
     cx="276"
     cy="275"
     r="275"
     style="fill:#eef2d8;fill-rule:nonzero;stroke:none;stroke-width:1;opacity:1" />
  <g
     id="Group-9"
     transform="translate(172,134)"
     style="fill:none;fill-rule:nonzero;stroke:none;stroke-width:1;opacity:1">
    <path
       d="m 192.29281,0.00582499 c 6.62742,0 12,5.37258301 12,12.00000001 0,6.627417 -5.37258,12 -12,12 -0.88478,0 -1.5659,-9.42e-4 -3.23871,-0.004 -17.65112,-0.03201 -26.53968,0.343939 -37.7421,2.122547 -14.96065,2.375304 -28.56422,7.017068 -41.45247,14.72146 -7.93187,4.74154 -15.525903,10.619047 -22.802255,17.773406 C 61.551797,83.697123 41.404359,116.44841 26.655953,157.00678 L 22.555059,168.28431 0,160.08252 4.1008936,148.80499 C 20.020972,105.0245 42.050603,69.213561 70.230778,41.505846 78.862752,33.018594 87.970536,25.969497 97.545212,20.245911 113.20709,10.883494 129.70392,5.2545002 147.54866,2.4212897 c 12.83021,-2.03705476 22.67912,-2.4536209 41.54896,-2.4194011 1.65789,0.00300653 2.33005,0.00393639 3.19519,0.00393639 z M 204.58881,66 c 0,6.627417 -5.37258,12 -12,12 H 175.20537 C 144.42678,78 119.54028,90.787627 101.39542,112.79101 86.799023,130.49134 78,153.2343 78,168.58408 v 12 H 54 v -12 C 54,147.44238 64.859719,119.37311 82.879185,97.52179 105.4074,70.202932 136.94055,54 175.20537,54 h 17.38344 c 6.62742,0 12,5.372583 12,12 z"
       id="Combined-Shape"
       style="fill:url(#linearGradient-1-568);opacity:1"
       inkscape:connector-curvature="0" />
    <path
       d="m 66,0 h 3 c 6.627417,0 12,5.372583 12,12 v 257 c 0,6.62742 -5.372583,12 -12,12 h -3 c -6.627417,0 -12,-5.37258 -12,-12 V 12 C 54,5.372583 59.372583,0 66,0 Z M 12,2 h 3 c 6.627417,0 12,5.372583 12,12 v 257 c 0,6.62742 -5.372583,12 -12,12 H 12 C 5.372583,283 0,277.62742 0,271 V 14 C 0,7.372583 5.372583,2 12,2 Z"
       id="path15"
       inkscape:connector-curvature="0"
       style="fill:#000000;opacity:1" />
  </g>
</svg>
