<svg xmlns="http://www.w3.org/2000/svg" xmlns:svg="http://www.w3.org/2000/svg" id="svg42" width="527" height="112" fill="none" version="1.1" viewBox="0 0 527 112"><metadata id="metadata46"/><g id="g20" clip-path="url(#clip0)"><path id="path2" fill="#F6F3ED" d="M56 112C86.9279 112 112 86.9279 112 56C112 25.0721 86.9279 0 56 0C25.0721 0 0 25.0721 0 56C0 86.9279 25.0721 112 56 112Z"/><path id="path4" fill="#0E0D10" d="M80.8114 27.5626C82.2735 27.5626 83.4587 28.7478 83.4587 30.2098C83.4587 31.6719 82.2735 32.8571 80.8114 32.8571C80.6162 32.8571 80.466 32.8569 80.0969 32.8562C76.203 32.8492 74.2421 32.9321 71.7708 33.3245C68.4704 33.8485 65.4694 34.8725 62.6261 36.5721C60.8763 37.6181 59.201 38.9148 57.5958 40.493C51.9691 46.0254 47.5245 53.2505 44.2709 62.1979L43.3662 64.6858L38.3904 62.8765L39.2951 60.3886C42.8072 50.7303 47.6671 42.8302 53.8838 36.7177C55.788 34.8454 57.7973 33.2903 59.9095 32.0277C63.3646 29.9622 67.0039 28.7205 70.9406 28.0954C73.771 27.646 75.9437 27.5541 80.1065 27.5617C80.4723 27.5624 80.6206 27.5626 80.8114 27.5626ZM83.524 42.1213C83.524 43.5833 82.3388 44.7686 80.8767 44.7686H77.0418C70.2519 44.7686 64.7618 47.5896 60.7589 52.4437C57.5388 56.3485 55.5977 61.3657 55.5977 64.7519V67.3992H50.3032V64.7519C50.3032 60.088 52.6989 53.8957 56.6741 49.0752C61.644 43.0485 68.6004 39.474 77.0418 39.474H80.8767C82.3388 39.474 83.524 40.6592 83.524 42.1213Z"/><g id="g8" filter="url(#filter0_d)"><path id="path6" fill="#0E0D10" d="M52.9504 27.5613H53.6123C55.0743 27.5613 56.2595 28.7465 56.2595 30.2086V86.9043C56.2595 88.3664 55.0743 89.5516 53.6123 89.5516H52.9504C51.4884 89.5516 50.3032 88.3664 50.3032 86.9043V30.2086C50.3032 28.7465 51.4884 27.5613 52.9504 27.5613ZM41.0377 28.0025H41.6995C43.1616 28.0025 44.3468 29.1877 44.3468 30.6498V87.3455C44.3468 88.8076 43.1616 89.9928 41.6995 89.9928H41.0377C39.5757 89.9928 38.3904 88.8076 38.3904 87.3455V30.6498C38.3904 29.1877 39.5757 28.0025 41.0377 28.0025Z"/></g><path id="path10" fill="#F7F3ED" d="M196.633 25.0079C199.363 25.0079 201.897 25.544 204.236 26.6162C206.673 27.5909 208.769 28.9555 210.523 30.71C212.278 32.4645 213.642 34.5114 214.617 36.8507C215.592 39.19 216.079 41.6756 216.079 44.3073C216.079 48.8885 214.909 52.7874 212.57 56.004C210.328 59.1231 207.258 61.3162 203.359 62.5833L217.834 82.3214C218.321 83.0037 218.565 83.7347 218.565 84.5145C218.565 85.1968 218.37 85.7816 217.98 86.269C217.59 86.7564 216.908 87 215.933 87H208.33C207.063 87 206.088 86.5127 205.406 85.538L189.323 63.753H183.036C181.964 63.753 181.038 63.4118 180.258 62.7295C179.478 61.9497 179.088 61.0238 179.088 59.9516V56.2964C179.088 55.2242 179.478 54.2982 180.258 53.5184C181.038 52.7386 181.964 52.3488 183.036 52.3488H196.195C198.534 52.3488 200.435 51.6177 201.897 50.1556C203.359 48.6936 204.09 46.7929 204.09 44.4535C204.09 42.3091 203.31 40.5059 201.751 39.0438C200.289 37.5818 198.437 36.8507 196.195 36.8507H171.339V83.0524C171.339 84.1246 170.95 85.0506 170.17 85.8304C169.39 86.6101 168.464 87 167.392 87H162.421C161.349 87 160.423 86.6101 159.643 85.8304C158.863 85.0506 158.473 84.1246 158.473 83.0524V28.9555C158.473 27.8833 158.863 26.9573 159.643 26.1775C160.423 25.3978 161.349 25.0079 162.421 25.0079H196.633Z"/><path id="path12" fill="#F7F3ED" d="M268.913 28.3707C269.401 27.3959 270.083 26.6162 270.96 26.0313C271.935 25.349 272.861 25.0079 273.738 25.0079H278.709C279.587 25.0079 280.513 25.349 281.487 26.0313C282.462 26.6162 283.193 27.3472 283.68 28.2244L312.191 82.029C312.483 82.5163 312.678 83.0037 312.776 83.491C312.873 83.8809 312.922 84.1246 312.922 84.2221C312.922 85.0019 312.63 85.6842 312.045 86.269C311.557 86.7564 310.875 87 309.998 87H303.565C302.882 87 302.151 86.7564 301.372 86.269C300.689 85.7816 300.153 85.1968 299.763 84.5145L293.623 73.1103H270.96C270.083 73.1103 269.352 72.8666 268.767 72.3792C268.28 71.7944 268.036 71.1121 268.036 70.3323C268.036 70.1374 268.182 69.6988 268.475 69.0165C268.767 68.2367 269.498 66.6284 270.668 64.1916C271.155 63.5093 271.74 62.9245 272.422 62.4371C273.105 61.9497 273.836 61.7061 274.615 61.7061H287.628L276.078 39.4825L252.977 84.3683C252.684 85.1481 252.099 85.7816 251.222 86.269C250.442 86.7564 249.76 87 249.175 87H243.181C242.206 87 241.475 86.7564 240.988 86.269C240.5 85.6842 240.257 85.0019 240.257 84.2221C240.257 83.8322 240.5 83.0524 240.988 81.8828L268.913 28.3707Z"/><path id="path14" fill="#F7F3ED" d="M339.938 28.9555C339.938 27.8833 340.328 26.9573 341.108 26.1775C341.887 25.3978 342.813 25.0079 343.886 25.0079H349.149C350.221 25.0079 351.147 25.3978 351.927 26.1775C352.707 26.9573 353.097 27.8833 353.097 28.9555V83.0524C353.097 84.1246 352.707 85.0506 351.927 85.8304C351.147 86.6101 350.221 87 349.149 87H343.886C342.813 87 341.887 86.6101 341.108 85.8304C340.328 85.0506 339.938 84.1246 339.938 83.0524V28.9555Z"/><path id="path16" fill="#F7F3ED" d="M386.653 28.9555C386.653 27.8833 387.043 26.9573 387.823 26.1775C388.603 25.3978 389.529 25.0079 390.601 25.0079H395.572C396.644 25.0079 397.522 25.3978 398.204 26.1775C398.984 26.9573 399.373 27.8833 399.373 28.9555V75.1572H436.949C438.021 75.1572 438.947 75.5471 439.727 76.3269C440.507 77.1066 440.897 78.0326 440.897 79.1048V83.0524C440.897 84.1246 440.507 85.0506 439.727 85.8304C438.947 86.6101 438.021 87 436.949 87H390.601C389.529 87 388.603 86.6101 387.823 85.8304C387.043 85.0506 386.653 84.1246 386.653 83.0524V28.9555Z"/><path id="path18" fill="#F7F3ED" d="M465.582 70.3323C465.582 69.2601 465.924 68.3342 466.606 67.5544C467.386 66.6771 468.312 66.2385 469.384 66.2385H474.062C475.037 66.2385 475.866 66.5797 476.548 67.262C477.23 67.8468 477.669 68.5778 477.864 69.4551C478.254 71.0146 479.034 72.3792 480.203 73.5489C481.373 74.6211 482.786 75.1572 484.443 75.1572H508.421C510.273 75.1572 511.833 74.4749 513.1 73.1103C514.367 71.6482 515.001 69.9912 515.001 68.1392C515.001 66.1898 514.367 64.5328 513.1 63.1681C511.833 61.8035 510.273 61.1212 508.421 61.1212H485.467C482.932 61.1212 480.544 60.6826 478.302 59.8054C476.158 58.8306 474.257 57.5635 472.6 56.004C470.943 54.3469 469.628 52.4462 468.653 50.3018C467.678 48.1575 467.191 45.8181 467.191 43.2839C467.191 40.7496 467.678 38.4103 468.653 36.2659C469.628 34.024 470.943 32.0746 472.6 30.4176C474.257 28.7605 476.158 27.4447 478.302 26.47C480.544 25.4952 482.932 25.0079 485.467 25.0079H508.129C510.371 25.0079 512.515 25.4465 514.562 26.3237C516.609 27.1035 518.412 28.2245 519.972 29.6865C521.629 31.0511 522.945 32.7082 523.919 34.6576C524.992 36.5096 525.674 38.5565 525.966 40.7983C525.966 42.0655 525.576 43.0889 524.797 43.8687C524.114 44.551 523.237 44.8922 522.165 44.8922H517.632C515.391 44.8922 514.123 43.82 513.831 41.6756C513.539 40.311 512.808 39.19 511.638 38.3128C510.566 37.3381 509.299 36.8507 507.836 36.8507H485.32C483.663 36.8507 482.201 37.4843 480.934 38.7514C479.765 40.0186 479.18 41.4806 479.18 43.1377C479.18 44.7947 479.765 46.2568 480.934 47.5239C482.201 48.791 483.663 49.4246 485.32 49.4246H508.275C510.907 49.4246 513.344 49.912 515.586 50.8867C517.925 51.7639 519.972 53.0798 521.726 54.8343C523.481 56.4913 524.845 58.4895 525.82 60.8288C526.795 63.0707 527.282 65.5075 527.282 68.1392C527.282 70.771 526.795 73.2565 525.82 75.5958C524.845 77.8377 523.481 79.8358 521.726 81.5903C519.972 83.2474 517.925 84.5632 515.586 85.538C513.344 86.5127 510.907 87 508.275 87H484.297C481.958 87 479.667 86.5127 477.425 85.538C475.183 84.5632 473.185 83.2961 471.431 81.7365C469.676 80.0795 468.263 78.2763 467.191 76.3269C466.118 74.3774 465.582 72.3792 465.582 70.3323Z"/></g><defs id="defs40"><filter id="filter0_d" width="37.869" height="82.431" x="30.39" y="17.561" color-interpolation-filters="sRGB" filterUnits="userSpaceOnUse"><feFlood id="feFlood22" flood-opacity="0" result="BackgroundImageFix"/><feColorMatrix id="feColorMatrix24" in="SourceAlpha" type="matrix" values="0 0 0 0 0 0 0 0 0 0 0 0 0 0 0 0 0 0 127 0"/><feOffset id="feOffset26" dx="2"/><feGaussianBlur id="feGaussianBlur28" stdDeviation="5"/><feColorMatrix id="feColorMatrix30" type="matrix" values="0 0 0 0 1 0 0 0 0 1 0 0 0 0 1 0 0 0 0.5 0"/><feBlend id="feBlend32" in2="BackgroundImageFix" mode="normal" result="effect1_dropShadow"/><feBlend id="feBlend34" in="SourceGraphic" in2="effect1_dropShadow" mode="normal" result="shape"/></filter><clipPath id="clip0"><rect id="rect37" width="527" height="112" fill="#fff"/></clipPath></defs></svg>