<?xml version="1.0" encoding="UTF-8" standalone="no"?>
<svg
   xmlns:dc="http://purl.org/dc/elements/1.1/"
   xmlns:cc="http://creativecommons.org/ns#"
   xmlns:rdf="http://www.w3.org/1999/02/22-rdf-syntax-ns#"
   xmlns:svg="http://www.w3.org/2000/svg"
   xmlns="http://www.w3.org/2000/svg"
   xmlns:sodipodi="http://sodipodi.sourceforge.net/DTD/sodipodi-0.dtd"
   xmlns:inkscape="http://www.inkscape.org/namespaces/inkscape"
   width="44.9524"
   height="45"
   viewBox="0 0 44.9524 45"
   fill="none"
   version="1.1"
   id="svg18"
   sodipodi:docname="status.svg"
   inkscape:version="1.0.1 (3bc2e813f5, 2020-09-07)">
  <metadata
     id="metadata24">
    <rdf:RDF>
      <cc:Work
         rdf:about="">
        <dc:format>image/svg+xml</dc:format>
        <dc:type
           rdf:resource="http://purl.org/dc/dcmitype/StillImage" />
        <dc:title></dc:title>
      </cc:Work>
    </rdf:RDF>
  </metadata>
  <defs
     id="defs22" />
  <sodipodi:namedview
     pagecolor="#ffffff"
     bordercolor="#666666"
     borderopacity="1"
     objecttolerance="10"
     gridtolerance="10"
     guidetolerance="10"
     inkscape:pageopacity="0"
     inkscape:pageshadow="2"
     inkscape:window-width="1920"
     inkscape:window-height="1136"
     id="namedview20"
     showgrid="false"
     fit-margin-top="0"
     fit-margin-left="0"
     fit-margin-right="0"
     fit-margin-bottom="0"
     inkscape:zoom="10.474576"
     inkscape:cx="59"
     inkscape:cy="22.5"
     inkscape:window-x="0"
     inkscape:window-y="27"
     inkscape:window-maximized="1"
     inkscape:current-layer="svg18" />
  <path
     fill-rule="evenodd"
     clip-rule="evenodd"
     d="M 22.4762,0 C 10.0629,0 0,10.0737 0,22.5 0,34.9264 10.0629,45 22.4762,45 34.8895,45 44.9524,34.9264 44.9524,22.5 44.9524,10.0737 34.8895,0 22.4762,0 Z"
     fill="#4360df"
     id="path2" />
  <path
     fill-rule="evenodd"
     clip-rule="evenodd"
     d="m 23.2309,21.5138 c 1.1286,0.1176 2.2573,0.2352 3.6448,0.1578 3.7595,-0.2098 6.0368,-2.1414 5.8752,-5.0288 -0.1647,-2.9376 -3.1944,-4.7475 -6.2258,-4.5783 -4.9402,0.2755 -8.573,4.6174 -8.9821,9.5799 0.6709,-0.1573 1.3771,-0.2512 2.043,-0.2884 1.3877,-0.0773 2.5163,0.0402 3.6449,0.1578 z m -9.6844,6.4222 c 0.1559,2.6929 3.0262,4.352 5.8981,4.1968 4.6801,-0.2526 8.1219,-4.2326 8.5094,-8.7817 -0.6356,0.1443 -1.3045,0.2305 -1.9355,0.2645 -1.3146,0.071 -2.3839,-0.0368 -3.4532,-0.1446 -1.0692,-0.1078 -2.1385,-0.2156 -3.4531,-0.1446 -3.5614,0.1923 -5.719,1.9629 -5.5657,4.6096 z"
     fill="#ffffff"
     id="path4" />
</svg>
