<?xml version="1.0" encoding="UTF-8" standalone="no"?>
<svg
   xmlns:dc="http://purl.org/dc/elements/1.1/"
   xmlns:cc="http://creativecommons.org/ns#"
   xmlns:rdf="http://www.w3.org/1999/02/22-rdf-syntax-ns#"
   xmlns:svg="http://www.w3.org/2000/svg"
   xmlns="http://www.w3.org/2000/svg"
   xmlns:sodipodi="http://sodipodi.sourceforge.net/DTD/sodipodi-0.dtd"
   xmlns:inkscape="http://www.inkscape.org/namespaces/inkscape"
   version="1.1"
   x="0px"
   y="0px"
   viewBox="0 0 1500.3 1403.25"
   xml:space="preserve"
   id="svg18"
   sodipodi:docname="web3js.svg"
   width="1500.3"
   height="1403.25"
   inkscape:version="1.0.1 (3bc2e813f5, 2020-09-07)"><metadata
   id="metadata24"><rdf:RDF><cc:Work
       rdf:about=""><dc:format>image/svg+xml</dc:format><dc:type
         rdf:resource="http://purl.org/dc/dcmitype/StillImage" /><dc:title></dc:title></cc:Work></rdf:RDF></metadata><defs
   id="defs22" /><sodipodi:namedview
   pagecolor="#ffffff"
   bordercolor="#666666"
   borderopacity="1"
   objecttolerance="10"
   gridtolerance="10"
   guidetolerance="10"
   inkscape:pageopacity="0"
   inkscape:pageshadow="2"
   inkscape:window-width="1920"
   inkscape:window-height="1136"
   id="namedview20"
   showgrid="false"
   fit-margin-top="0"
   fit-margin-left="0"
   fit-margin-right="0"
   fit-margin-bottom="0"
   inkscape:zoom="0.321875"
   inkscape:cx="750.3"
   inkscape:cy="701.6"
   inkscape:window-x="0"
   inkscape:window-y="27"
   inkscape:window-maximized="1"
   inkscape:current-layer="svg18" />
<style
   type="text/css"
   id="style2">
	.st0{fill:#F16822;}
	.st1{fill:#808285;}
	.st2{fill:#BCBEC0;}
</style>
<g
   id="Layer_1"
   transform="translate(-1169.7,-378.4)">
	<path
   class="st0"
   d="m 2447.8,635 c -51.2,-29.6 -97.1,-44 -136.2,-49.8 -10.2,-22.3 -35.2,-48.5 -86,-77.5 -166.7,-95.2 -333.3,-1 -333.3,-1 L 1670,635 l 111.1,64.1 222.2,-128.3 c 0,0 55.6,-32.1 111.1,0 55.6,32.1 0,64.2 0,64.2 l -222.2,128.3 v 0 0 l 111.1,64.1 222.4,-128.4 c 3.3,-1.9 57.1,-31 110.9,0.1 55.6,32.1 0,64.1 0,64.1 l -222.2,128.3 111.1,64.2 277.8,-160.4 c 0,0 111.1,-64.1 -55.5,-160.3 z"
   id="path4" />
	<g
   id="g14">
		<path
   class="st1"
   d="m 1670,635 c 0,0 -55.6,32.1 -55.6,96.2 0,64.2 0,320.4 0,320.4 0,0 0,64.2 -55.6,32.1 -55.6,-32.1 -55.6,-96.2 -55.6,-96.2 0,0 0,-256.3 0,-320.4 0,-4 0.2,-7.9 0.6,-11.7 6.1,-56.4 54.9,-84.6 54.9,-84.6 v 0 0 l -111.1,-64.1 c 0,0 -0.1,0 -0.2,0.1 -3.3,1.9 -55.4,34 -55.4,96.1 0,0 0,0 0,0 0,64.2 0,320.4 0,320.4 0,0 0,64.2 -55.6,32.1 -55.6,-32.1 -55.6,-96.2 -55.6,-96.2 0,0 0,-256.3 0,-320.4 0,-64.1 55.6,-96.2 55.6,-96.2 l -111.1,-64.2 c 0,0 -55.6,32.1 -55.6,96.2 0,64.2 0,320.4 0,320.4 0,0 0,192.5 166.7,288.7 51.1,29.5 86.5,31.8 111.1,20.9 24.6,39.3 60,77.9 111.1,107.4 166.7,96.2 166.7,-96.2 166.7,-96.2 0,0 0,-256.3 0,-320.4 0,-64.2 55.6,-96.2 55.6,-96.2 z"
   id="path6" />
		<polygon
   class="st2"
   points="1947.8,1116.8 1836.7,1052.7 1836.7,924.4 1947.8,988.5 "
   id="polygon8" />
		<path
   class="st2"
   d="m 2114.4,891.6 c 0,0 -55.6,32.1 -55.6,96.2 0,64.2 0,320.4 0,320.4 0,0 0,64.2 -55.6,32.1 -55.6,-32.1 -55.6,-96.2 -55.6,-96.2 l -111.1,-64.2 c 0,0 0,192.5 166.7,288.7 166.7,96.2 166.7,-96.2 166.7,-96.2 0,0 0,-256.3 0,-320.4 0,-64.1 55.6,-96.2 55.6,-96.2 z"
   id="path10" />
		<path
   class="st2"
   d="M 2447.8,1212.3 2670,1340.6 V 1212.3 L 2447.8,1084 c 0,0 -166.7,-93.8 -166.7,96.2 0,190 166.7,288.7 166.7,288.7 v 0 l 55.6,32.1 c 0,0 55.6,32.1 55.6,96.2 0,64.2 -55.6,32.1 -55.6,32.1 L 2281.1,1501 v 128.3 l 222.2,128.3 c 0,0 166.7,96.2 166.7,-96.2 0,-192.4 -111.1,-256.6 -111.1,-256.6 l -111.1,-64.1 c 0,0 -55.6,-32.1 -55.6,-96.2 0,-64.3 55.6,-32.2 55.6,-32.2 z"
   id="path12" />
	</g>
</g>
<g
   id="Layer_1_copy"
   transform="translate(-1169.7,-378.4)">
</g>
</svg>
